PathFileType	4	(X/Y/Z)	RBDS08static.trc
DataRate	CameraRate	NumFrames	NumMarkers	Units	OrigDataRate	OrigDataStartFrame	OrigNumFrames
150.000000	150.000000	4	48	mm	150.000000	75	150
Frame#	Time	L.Ankle			L.Ankle.Medial			L.ASIS			L.GTR			L.Heel.Bottom			L.Heel.Lateral			L.Heel.Top			L.HF			L.Iliac.Crest			L.Knee			L.Knee.Medial			L.MT1			L.MT2			L.MT5			L.PSIS			L.Shank.Bottom.Lateral			L.Shank.Bottom.Medial			L.Shank.Top.Lateral			L.Shank.Top.Medial			L.Thigh.Bottom.Lateral			L.Thigh.Bottom.Medial			L.Thigh.Top.Lateral			L.Thigh.Top.Medial			L.TT			R.Ankle			R.Ankle.Medial			R.ASIS			R.GTR			R.Heel.Bottom			R.Heel.Lateral			R.Heel.Top			R.HF			R.Iliac.Crest			R.Knee			R.Knee.Medial			R.MT1			R.MT2			R.MT5			R.PSIS			R.Shank.Bottom.Lateral			R.Shank.Bottom.Medial			R.Shank.Top.Lateral			R.Shank.Top.Medial			R.Thigh.Bottom.Lateral			R.Thigh.Bottom.Medial			R.Thigh.Top.Lateral			R.Thigh.Top.Medial			R.TT			
		X1	Y1	Z1	X2	Y2	Z2	X3	Y3	Z3	X4	Y4	Z4	X5	Y5	Z5	X6	Y6	Z6	X7	Y7	Z7	X8	Y8	Z8	X9	Y9	Z9	X10	Y10	Z10	X11	Y11	Z11	X12	Y12	Z12	X13	Y13	Z13	X14	Y14	Z14	X15	Y15	Z15	X16	Y16	Z16	X17	Y17	Z17	X18	Y18	Z18	X19	Y19	Z19	X20	Y20	Z20	X21	Y21	Z21	X22	Y22	Z22	X23	Y23	Z23	X24	Y24	Z24	X25	Y25	Z25	X26	Y26	Z26	X27	Y27	Z27	X28	Y28	Z28	X29	Y29	Z29	X30	Y30	Z30	X31	Y31	Z31	X32	Y32	Z32	X33	Y33	Z33	X34	Y34	Z34	X35	Y35	Z35	X36	Y36	Z36	X37	Y37	Z37	X38	Y38	Z38	X39	Y39	Z39	X40	Y40	Z40	X41	Y41	Z41	X42	Y42	Z42	X43	Y43	Z43	X44	Y44	Z44	X45	Y45	Z45	X46	Y46	Z46	X47	Y47	Z47	X48	Y48	Z48	

76	0.5	756.6928100585938	103.3070373535156	1046.957641601563	774.219482421875	108.3693237304688	1131.372680664063	902.1859130859375	1042.438110351563	1110.677368164063	832.7460327148438	938.8958740234375	1049.592895507813	671.0091552734375	44.86090850830078	1081.12548828125	702.1412353515625	63.20983505249023	1036.924926757813	685.331298828125	94.71437072753906	1086.05322265625	787.2656860351563	480.6649780273438	1031.693481445313	828.9972534179688	1104.844970703125	1081.6787109375	792.1011962890625	540.0199584960938	1038.611083984375	780.9306030273438	522.5323486328125	1151.7802734375	899.6746826171875	62.02983856201172	1116.515747070313	903.2542724609375	67.01251983642578	1075.313232421875	861.0927124023438	50.43423080444336	1009.416198730469	732.060546875	1059.613159179688	1181.15576171875	745.1126708984375	176.4732360839844	1038.249145507813	707.0776977539063	177.3058776855469	1073.627807617188	740.1952514648438	256.4431457519531	1026.492919921875	704.81787109375	261.7520751953125	1066.416625976563	801.8056640625	674.7230224609375	1022.579711914063	742.8352661132813	669.5737915039063	1065.991333007813	795.024169921875	785.2471923828125	1029.607788085938	742.3594360351563	779.6065673828125	1076.164916992188	836.5174560546875	453.2335510253906	1080.234008789063	737.0728759765625	108.3645858764648	1407.453125	762.7510375976563	114.8927154541016	1323.948120117188	908.584228515625	1038.64794921875	1346.404174804688	834.6239624023438	944.5021362304688	1404.622436523438	657.789794921875	43.87546539306641	1371.1298828125	685.6704711914063	61.00159072875977	1412.811279296875	668.9901123046875	93.15569305419922	1369.07763671875	771.1180419921875	487.2835388183594	1433.025512695313	840.0305786132813	1097.303588867188	1378.44677734375	775.115478515625	543.255859375	1426.471923828125	764.4564819335938	521.9663696289063	1313.83642578125	884.459716796875	60.75128936767578	1330.547119140625	890.8678588867188	68.74022674560547	1376.722778320313	852.4556274414063	56.65967559814453	1436.823120117188	734.9457397460938	1060.7802734375	1284.299072265625	716.631103515625	192.1976165771484	1418.561645507813	690.22607421875	196.284423828125	1369.682739257813	707.66162109375	272.6722106933594	1426.778076171875	686.4514770507813	275.8583984375	1377.2138671875	791.1784057617188	652.6510009765625	1436.281372070313	731.7069091796875	654.5560913085938	1392.654663085938	793.6344604492188	763.1810302734375	1434.072509765625	738.6508178710938	764.4517211914063	1392.004516601563	818.8026733398438	461.0830383300781	1385.812744140625	
77	0.5066666666666667	756.677734375	103.3109588623047	1046.961181640625	774.2167358398438	108.3757171630859	1131.371826171875	902.2060546875	1042.446044921875	1110.702514648438	832.7593383789063	938.8839721679688	1049.612426757813	671.0099487304688	44.86368560791016	1081.12060546875	702.1478881835938	63.20742034912109	1036.926879882813	685.3333129882813	94.71492004394531	1086.0537109375	787.2772216796875	480.67919921875	1031.705078125	829.01123046875	1104.852905273438	1081.710083007813	792.10888671875	540.0299682617188	1038.633666992188	780.9237060546875	522.5405883789063	1151.794067382813	900.2301025390625	62.63059997558594	1116.458374023438	903.2606201171875	67.02366638183594	1075.317016601563	861.09326171875	50.43127059936523	1009.414489746094	732.0803833007813	1059.611572265625	1181.193725585938	745.1170654296875	176.4846649169922	1038.260131835938	707.08203125	177.3119049072266	1073.627807617188	740.1976928710938	256.4537353515625	1026.49658203125	704.828125	261.7574768066406	1066.422241210938	801.6639404296875	674.8372802734375	1022.557800292969	742.920166015625	669.5142211914063	1066.042724609375	795.0471801757813	785.2479248046875	1029.628051757813	742.3748779296875	779.6015014648438	1076.186889648438	836.531005859375	453.2351684570313	1080.245361328125	737.0811157226563	108.3533096313477	1407.44091796875	762.744140625	114.8952560424805	1323.957397460938	908.60546875	1038.650634765625	1346.425415039063	834.6481323242188	944.510009765625	1404.649658203125	657.791259765625	43.8784294128418	1371.12646484375	685.6748657226563	61.0068359375	1412.803955078125	668.9968872070313	93.15505981445313	1369.07421875	771.1514892578125	487.2814025878906	1433.0263671875	840.0530395507813	1097.294799804688	1378.470703125	775.1220092773438	543.2557373046875	1426.500122070313	764.4441528320313	521.9636840820313	1313.844970703125	884.4579467773438	60.75820159912109	1330.5361328125	890.872314453125	68.74277496337891	1376.71435546875	852.464111328125	56.66130447387695	1436.813232421875	734.9693603515625	1060.779907226563	1284.31689453125	716.6400756835938	192.2005004882813	1418.567993164063	690.23046875	196.2904052734375	1369.68310546875	707.6713256835938	272.6741333007813	1426.791381835938	686.4672241210938	275.8639526367188	1377.221069335938	791.1909790039063	652.6588745117188	1436.30419921875	731.7177124023438	654.552490234375	1392.6748046875	793.6585083007813	763.1766357421875	1434.102294921875	738.6630249023438	764.4564208984375	1392.038452148438	818.7936401367188	461.0924987792969	1385.848999023438	
78	0.5133333333333334	756.6879272460938	103.309814453125	1046.964233398438	774.2211303710938	108.3678588867188	1131.381958007813	902.2306518554688	1042.440063476563	1110.729736328125	832.763427734375	938.8893432617188	1049.630615234375	671.0111694335938	44.86454772949219	1081.126220703125	702.1503295898438	63.22016143798828	1036.921875	685.3299560546875	94.71878814697266	1086.049560546875	787.2919311523438	480.6671142578125	1031.729858398438	829.0325317382813	1104.855346679688	1081.7255859375	792.122314453125	540.027587890625	1038.640014648438	780.9346923828125	522.5372924804688	1151.811889648438	899.8986206054688	62.50955581665039	1117.030517578125	903.2662353515625	67.01421356201172	1075.311889648438	861.0927124023438	50.43156433105469	1009.409362792969	732.0950317382813	1059.614135742188	1181.222045898438	745.120849609375	176.4889373779297	1038.259155273438	707.0704956054688	177.2973480224609	1073.620727539063	740.2070922851563	256.4527587890625	1026.503295898438	704.8306274414063	261.7666931152344	1066.4248046875	801.6844482421875	674.8309326171875	1022.5771484375	742.9361572265625	669.5169677734375	1066.053100585938	795.0663452148438	785.248046875	1029.649536132813	742.3956909179688	779.6055297851563	1076.219482421875	836.5396728515625	453.229736328125	1080.26611328125	737.0889892578125	108.3574676513672	1407.4404296875	762.7603759765625	114.8953399658203	1323.95068359375	908.634521484375	1038.650390625	1346.439819335938	834.6753540039063	944.5050048828125	1404.6884765625	657.792236328125	43.88106536865234	1371.128295898438	685.6731567382813	61.01898193359375	1412.813110351563	669.0008544921875	93.15927886962891	1369.080322265625	771.1322021484375	487.2930297851563	1433.044067382813	840.0732421875	1097.289794921875	1378.499145507813	775.132568359375	543.255615234375	1426.513916015625	764.446533203125	521.982421875	1313.882934570313	884.464111328125	60.75240325927734	1330.531127929688	890.870849609375	68.73025512695313	1376.71923828125	852.4591674804688	56.65716934204102	1436.81982421875	734.9837036132813	1060.77587890625	1284.340942382813	716.6494750976563	192.2057189941406	1418.567504882813	690.2322387695313	196.3015594482422	1369.690551757813	707.6832275390625	272.6749267578125	1426.801513671875	686.4783325195313	275.8733825683594	1377.22900390625	791.2127685546875	652.65576171875	1436.326538085938	731.73291015625	654.5590209960938	1392.690795898438	793.6776733398438	763.1832275390625	1434.11669921875	738.6845703125	764.4608764648438	1392.060791015625	818.7924194335938	461.0966186523438	1385.878051757813	
79	0.52	756.6813354492188	103.317741394043	1046.971801757813	774.2271728515625	108.3864364624023	1131.383666992188	902.241943359375	1042.443237304688	1110.748901367188	832.7957763671875	938.8870239257813	1049.661865234375	671.0075073242188	44.8739013671875	1081.125244140625	702.1464233398438	63.21327972412109	1036.927001953125	685.349853515625	94.71398162841797	1086.0625	787.292724609375	480.6702575683594	1031.74462890625	829.0499877929688	1104.864013671875	1081.769653320313	792.1420288085938	540.03271484375	1038.66552734375	780.9445190429688	522.5392456054688	1151.820922851563	900.2962036132813	62.87679672241211	1116.984985351563	903.2606811523438	67.019287109375	1075.316650390625	861.093017578125	50.4343147277832	1009.415466308594	732.1180419921875	1059.612670898438	1181.241455078125	745.1224365234375	176.4951782226563	1038.265380859375	707.0952758789063	177.3129425048828	1073.634643554688	740.205322265625	256.4593811035156	1026.5078125	704.835205078125	261.7721557617188	1066.43798828125	801.6957397460938	674.8316650390625	1022.589294433594	742.9511108398438	669.5227661132813	1066.073486328125	795.0855102539063	785.248779296875	1029.679443359375	742.4094848632813	779.60693359375	1076.23486328125	836.5474243164063	453.2334594726563	1080.27197265625	737.08642578125	108.3664321899414	1407.437744140625	762.7553100585938	114.8978118896484	1323.969970703125	908.6531372070313	1038.654296875	1346.458129882813	834.6978149414063	944.511474609375	1404.733032226563	657.7987060546875	43.88130950927734	1371.120849609375	685.67919921875	61.03001022338867	1412.803833007813	668.9989624023438	93.16931915283203	1369.073120117188	771.1572265625	487.2935485839844	1433.061157226563	840.0910034179688	1097.287963867188	1378.520874023438	775.1414794921875	543.2528686523438	1426.52587890625	764.4368286132813	521.9843139648438	1313.870971679688	884.46435546875	60.7421760559082	1330.534912109375	890.8731079101563	68.72926330566406	1376.708374023438	852.4586791992188	56.65191268920898	1436.821533203125	735.0170288085938	1060.773803710938	1284.363891601563	716.65576171875	192.2092895507813	1418.572631835938	690.237060546875	196.3094024658203	1369.694702148438	707.6890869140625	272.6690368652344	1426.806884765625	686.4962158203125	275.8721313476563	1377.2421875	791.22021484375	652.6597290039063	1436.336791992188	731.7427978515625	654.56494140625	1392.711059570313	793.7022705078125	763.1826782226563	1434.145385742188	738.70263671875	764.4684448242188	1392.083862304688	818.8082275390625	461.0928649902344	1385.874145507813	
